
nColumns=19
nRows=44
DataType=double
version=3
OpenSimVersion=4.4-2022-10-11-798caa840
endheader
time	ground_force_calcn_r_vx	ground_force_calcn_r_vy	ground_force_calcn_r_vz	ground_force_calcn_r_px	ground_force_calcn_r_py	ground_force_calcn_r_pz	ground_force_calcn_r_mx	ground_force_calcn_r_my	ground_force_calcn_r_mz	ground_force_calcn_l_vx	ground_force_calcn_l_vy	ground_force_calcn_l_vz	ground_force_calcn_l_px	ground_force_calcn_l_py	ground_force_calcn_l_pz	ground_force_calcn_l_mx	ground_force_calcn_l_my	ground_force_calcn_l_mz
1.42	-25.572	39.0246	-7.74368	-0.08329499999999999	0	-0.439666	-0.172039	0.262543	-0.0520966	0	0	0	0	0	0	0	0	0
1.43	-252.698	396.023	-52.4826	-0.103155	0	-0.433535	-0.874525	1.37053	-0.181629	0	0	0	0	0	0	0	0	0
1.44	-428.4	762.593	-87.3837	-0.109352	0	-0.438962	-2.63502	4.69059	-0.537483	0	0	0	0	0	0	0	0	0
1.45	-197.771	732.128	-42.8567	-0.123785	0	-0.443784	-2.17598	8.055249999999999	-0.471531	-81.7179	102.678	7.95367	-0.108523	0	-0.73541	0.235529	-0.295941	-0.0229242
1.46	-131.124	740.542	-23.8518	-0.135233	0	-0.448399	-1.38836	7.84095	-0.252545	-232.555	338.641	26.7197	-0.11701	0	-0.741208	0.415304	-0.604756	-0.0477169
1.47	-252.531	836.896	-55.7434	-0.138226	0	-0.450522	-1.43277	4.74826	-0.316269	-234.506	487.802	36.0918	-0.122053	0	-0.736881	1.21489	-2.52713	-0.186979
1.48	-304.714	879.071	-70.1871	-0.141333	0	-0.452474	-0.915547	2.64127	-0.210885	-121.831	522.668	13.083	-0.129591	0	-0.731067	0.895875	-3.84339	-0.0962046
1.49	-304.611	943.621	-77.72190000000001	-0.147781	0	-0.455494	-0.101827	0.315439	-0.0259813	-114.074	581.4829999999999	2.90283	-0.133339	0	-0.726878	0.359921	-1.83467	-0.009158879999999999
1.5	-235.416	1062.91	-55.4882	-0.159408	0	-0.462058	0.6360209999999999	-2.87165	0.149912	-155.432	643.862	-1.01606	-0.133913	0	-0.723252	-0.135577	0.561615	-0.000886266
1.51	-154.294	1162.65	-23.0738	-0.167929	0	-0.469217	0.760996	-5.7343	0.113803	-188.527	706.496	-2.73787	-0.133824	0	-0.720516	-0.569584	2.13449	-0.00827175
1.52	-157.999	1142.43	-16.1051	-0.162934	0	-0.471776	0.853966	-6.17469	0.0870464	-201.206	746.766	5.11513	-0.134345	0	-0.720042	-0.772796	2.8682	0.0196463
1.53	-203.551	1033.13	-25.4434	-0.148924	0	-0.471198	0.808798	-4.10507	0.101098	-195.33	748.6	20.9282	-0.135634	0	-0.72116	-0.5899489999999999	2.26097	0.06320870000000001
1.54	-222.057	944.366	-28.5028	-0.138619	0	-0.471334	0.544004	-2.31355	0.06982720000000001	-196.102	735.1559999999999	41.649	-0.137272	0	-0.72344	-0.225927	0.846967	0.0479835
1.55	-210.979	908.353	-18.9305	-0.136567	0	-0.472947	0.482908	-2.07912	0.04333	-200.142	717.622	58.915	-0.139531	0	-0.725722	0.122397	-0.438861	-0.0360294
1.56	-187.554	909.976	-4.84876	-0.13986	0	-0.475112	0.498669	-2.41944	0.0128919	-197.392	705.591	68.846	-0.142788	0	-0.7271339999999999	0.26296	-0.939967	-0.0917145
1.57	-156.451	934.139	2.50952	-0.146049	0	-0.476966	0.334535	-1.99744	-0.00536603	-183.946	722.415	71.6439	-0.146942	0	-0.727245	0.165318	-0.649257	-0.06438869999999999
1.58	-115.385	968.201	1.27769	-0.15365	0	-0.477986	0.0804208	-0.674813	-0.000890519	-158.328	780.394	69.34229999999999	-0.151638	0	-0.726185	-0.0945013	0.465796	0.0413885
1.59	-72.8094	993.492	-1.74196	-0.160089	0	-0.478448	-0.0585325	0.798682	-0.00140039	-129.216	840.403	64.63930000000001	-0.155234	0	-0.724471	-0.407631	2.65118	0.203915
1.6	-43.6266	1004.66	-2.08224	-0.163765	0	-0.478802	-0.0768462	1.76966	-0.00366778	-105.676	861.462	59.3118	-0.156424	0	-0.722326	-0.685469	5.58787	0.384726
1.61	-29.7156	1008.21	-2.6136	-0.16495	0	-0.478762	-0.0733632	2.48912	-0.00645257	-101.775	839.458	57.4073	-0.154569	0	-0.720242	-1.02073	8.41915	0.575753
1.62	-25.1895	1001.3	-6.96985	-0.163983	0	-0.478104	-0.0880909	3.50167	-0.0243744	-117.907	798.196	59.4903	-0.150378	0	-0.718558	-1.53435	10.3871	0.774163
1.63	-24.862	983.6950000000001	-12.3576	-0.161759	0	-0.477086	-0.115907	4.58601	-0.0576113	-136.167	757.865	61.1576	-0.145753	0	-0.716935	-2.04302	11.3708	0.917594
1.64	-23.9354	965.172	-12.9174	-0.159525	0	-0.476376	-0.125933	5.07813	-0.0679633	-147.16	730.446	58.3122	-0.14239	0	-0.715041	-2.3938	11.8819	0.948546
1.65	-23.9402	953.928	-9.578670000000001	-0.157491	0	-0.476052	-0.123586	4.92444	-0.0494477	-149.375	718.26	52.2452	-0.140739	0	-0.7133659999999999	-2.52251	12.1293	0.882265
1.66	-25.8246	949.51	-8.34299	-0.155436	0	-0.475555	-0.128052	4.70817	-0.0413689	-144.398	712.651	51.6424	-0.140415	0	-0.712233	-2.35518	11.6236	0.842307
1.67	-24.6712	946.502	-11.5494	-0.153722	0	-0.474573	-0.124177	4.76401	-0.0581313	-138.97	709.648	59.6554	-0.140889	0	-0.711986	-2.01969	10.3135	0.866988
1.68	-17.5852	946.004	-16.2926	-0.153154	0	-0.473238	-0.09169239999999999	4.93262	-0.08495229999999999	-132.675	704.144	69.62779999999999	-0.141931	0	-0.712238	-1.67915	8.911709999999999	0.881215
1.69	-7.45588	948.179	-19.9877	-0.153569	0	-0.471953	-0.039189	4.98375	-0.105058	-124.936	691.482	74.1508	-0.143051	0	-0.7120030000000001	-1.45684	8.063140000000001	0.8646470000000001
1.7	-0.233285	947.503	-23.2561	-0.153856	0	-0.470605	-0.00118855	4.82737	-0.118486	-118.152	672.232	71.9029	-0.1438	0	-0.710697	-1.37488	7.82245	0.836701
1.71	2.64893	939.4589999999999	-27.3898	-0.15352	0	-0.469032	0.0129885	4.60646	-0.134301	-114.463	647.829	66.145	-0.143943	0	-0.708565	-1.40874	7.97309	0.814072
1.72	4.23162	926.566	-32.7686	-0.152908	0	-0.467192	0.0206678	4.52548	-0.160047	-114.844	619.926	60.506	-0.143381	0	-0.705856	-1.5234	8.2233	0.80261
1.73	5.86539	913.284	-39.0095	-0.152361	0	-0.465117	0.0299676	4.66618	-0.199309	-115.341	589.9880000000001	55.4354	-0.14277	0	-0.702886	-1.63912	8.38434	0.787795
1.74	7.11209	900.71	-45.1715	-0.15184	0	-0.463032	0.0388413	4.91905	-0.246696	-112.156	558.64	50.3478	-0.142553	0	-0.699863	-1.69683	8.45177	0.761722
1.75	7.90795	888.545	-50.4425	-0.151239	0	-0.461018	0.0458925	5.15653	-0.292735	-105.651	529.758	44.5368	-0.142698	0	-0.696722	-1.69365	8.49235	0.7139529999999999
1.76	7.58851	875.276	-54.8724	-0.150526	0	-0.459049	0.0467101	5.38765	-0.33776	-97.5188	511.938	36.6326	-0.143542	0	-0.693489	-1.6483	8.653	0.61918
1.77	5.98741	861.232	-59.2876	-0.149771	0	-0.457089	0.0396283	5.70016	-0.392402	-87.005	508.269	26.3375	-0.145103	0	-0.690523	-1.5365	8.976000000000001	0.465119
1.78	4.36292	848.123	-64.31399999999999	-0.149089	0	-0.455148	0.0314521	6.11409	-0.463637	-73.8729	506.957	16.5153	-0.145909	0	-0.688321	-1.32173	9.07042	0.29549
1.79	3.56783	837.596	-69.6426	-0.148656	0	-0.453249	0.0283604	6.65798	-0.553583	-61.2857	496.628	11.3101	-0.144044	0	-0.687415	-1.04557	8.47275	0.192957
1.8	3.44053	831.186	-74.9885	-0.148501	0	-0.45143	0.0300391	7.25704	-0.65472	-49.9254	478.625	10.7832	-0.139838	0	-0.687851	-0.741067	7.10446	0.16006
1.81	2.60613	829.114	-80.5082	-0.148432	0	-0.449914	0.0246839	7.85294	-0.762533	-33.5763	453.035	10.9276	-0.134711	0	-0.688925	-0.40305	5.43823	0.131174
1.82	1.63528	831.527	-86.1889	-0.148302	0	-0.44874	0.0164827	8.38129	-0.8687319999999999	-14.2076	412.476	10.5899	-0.128601	0	-0.6903629999999999	-0.128775	3.7386	0.0959846
1.83	3.07012	839.873	-91.1555	-0.148114	0	-0.447935	0.0319829	8.749370000000001	-0.949611	4.88671	350.193	9.5289	-0.121619	0	-0.6922	0.0297886	2.13472	0.0580866
1.84	5.50132	856.26	-94.7744	-0.147633	0	-0.44763	0.0570366	8.87753	-0.982603	23.0204	268.049	7.56442	-0.114064	0	-0.694518	0.0666873	0.776506	0.0219133
1.85	6.2975	880.426	-95.9897	-0.146427	0	-0.447867	0.0613104	8.57155	-0.9345250000000001	32.0739	178.157	5.0085	-0.105448	0	-0.697398	-0.00751943	-0.0417673	-0.0011742
